<svg width="79" height="34" viewBox="0 0 79 34" fill="none" xmlns="http://www.w3.org/2000/svg">
<g clip-path="url(#clip0)">
<path d="M67 31H71V34H67V31Z" fill="#4D5F88"/>
<path d="M79.7087 32L74.02 24H78.5L73.6483 18H77.2665L72.5 13H75.4397L68.8544 5L62.1733 13H65.113L60.3819 18H64L59.2033 24H63.6833L58 32H79.7087Z" fill="#008E9F"/>
<path d="M68.8673 0L69.7533 1.79522L71.7346 2.08348L70.3012 3.48062L70.6395 5.45427L68.8673 4.52265L67.095 5.45427L67.4334 3.48062L66 2.08348L67.9816 1.79522L68.8673 0Z" fill="#FFB100"/>
<path d="M65 24.8091L67.4121 23L68.0151 26.6181L65 24.8091Z" fill="#00F8AC"/>
<path d="M69 21.4121L71.4121 19L72.6181 22.6181L69 21.4121Z" fill="#00F8AC"/>
<path d="M70 24H71.206V25.206H70V24Z" fill="#EE593A"/>
<path d="M65 19H66.206V20.206H65V19Z" fill="#EE593A"/>
<path d="M67 17H68.206V18.206H67V17Z" fill="#EE593A"/>
<path d="M69 9H70.206V10.206H69V9Z" fill="#EE593A"/>
<path d="M71 16H72.206V17.206H71V16Z" fill="#EE593A"/>
<path d="M72 26H73.206V27.206H72V26Z" fill="#EE593A"/>
<path d="M68 11L71.0151 12.206L68 14.6181V11Z" fill="#00F8AC"/>
<path d="M6.4729 3.00101C7.38951 2.98407 8.297 3.18081 9.11961 3.57482C9.86499 3.93466 10.4926 4.48952 10.9323 5.17718C11.3737 5.87666 11.6012 6.68409 11.5884 7.50494C11.5972 8.18391 11.3915 8.84912 10.999 9.41045C10.5859 9.99008 10.0297 10.4592 9.38145 10.7746C10.3132 10.9606 11.1523 11.4493 11.7613 12.1604C12.3604 12.9144 12.6675 13.8497 12.6287 14.8022C12.6434 15.7309 12.3932 16.6454 11.9058 17.4439C11.4228 18.2247 10.7215 18.8555 9.8839 19.2628C8.97023 19.7059 7.96057 19.9286 6.93997 19.9124H1.15724C1.00455 19.9158 0.852767 19.8888 0.711231 19.833C0.569706 19.7771 0.441425 19.6936 0.334312 19.5876C0.22545 19.4834 0.139685 19.3585 0.0823064 19.2207C0.024928 19.0829 -0.00284829 18.935 0.000691105 18.7864V4.12699C-0.00476104 3.9765 0.0220943 3.82655 0.0795394 3.68673C0.136985 3.54691 0.223758 3.4203 0.334312 3.31498C0.443051 3.21188 0.57187 3.13098 0.713193 3.07706C0.854526 3.02314 1.00549 2.99729 1.15724 3.00101H6.4729ZM6.4729 9.95178C7.22747 9.98903 7.97146 9.76675 8.5747 9.32383C8.84199 9.10088 9.05244 8.82054 9.18946 8.5049C9.32647 8.18926 9.38631 7.84694 9.36426 7.50494C9.3871 7.16444 9.32755 6.82347 9.19043 6.50945C9.0533 6.19543 8.8424 5.91712 8.5747 5.69687C7.96847 5.26074 7.22572 5.04265 6.4729 5.07974H2.31581V9.95178H6.4729ZM6.93997 17.8337C7.84805 17.8764 8.74118 17.5967 9.45323 17.0463C9.77643 16.7675 10.0305 16.421 10.1961 16.0328C10.3618 15.6446 10.4348 15.2248 10.4096 14.8051C10.4328 14.4136 10.359 14.0224 10.1945 13.6645C10.03 13.3065 9.77957 12.9921 9.46435 12.748C8.72853 12.2396 7.83801 11.9879 6.93693 12.0335H2.31581V17.8406L6.93997 17.8337ZM20.1513 7.98131C21.2515 7.96376 22.337 8.2289 23.2984 8.75001C24.2135 9.25113 24.968 9.98942 25.4781 10.8829C26.0161 11.8374 26.2883 12.9124 26.2676 14.001C26.2866 15.0812 26.0184 16.1478 25.4892 17.0974C24.9855 17.9918 24.2342 18.7308 23.3207 19.2303C22.3519 19.7532 21.2588 20.0183 20.1513 19.999C19.0417 20.0165 17.9468 19.7516 16.9748 19.2303C16.055 18.734 15.298 17.9946 14.7911 17.0974C14.2619 16.1478 13.9937 15.0812 14.0127 14.001C13.992 12.9137 14.2601 11.8396 14.7911 10.8829C15.298 9.98578 16.055 9.2464 16.9748 8.75001C17.9468 8.22876 19.0417 7.96378 20.1513 7.98131ZM20.1513 9.93013C19.4369 9.91935 18.7332 10.0991 18.1162 10.4498C17.5148 10.7956 17.0246 11.2981 16.7008 11.9006C16.3532 12.5482 16.1773 13.2703 16.1893 14.001C16.1764 14.7284 16.3524 15.4471 16.7008 16.0906C17.0271 16.6886 17.5169 17.1869 18.1162 17.5305C18.7332 17.8813 19.4369 18.0609 20.1513 18.0502C20.8656 18.0609 21.5694 17.8813 22.1863 17.5305C22.7829 17.1881 23.2685 16.6891 23.5875 16.0906C23.929 15.445 24.101 14.7271 24.088 14.001C24.1 13.2716 23.9282 12.5504 23.5875 11.9006C23.271 11.2976 22.7851 10.7944 22.1863 10.4498C21.5694 10.0991 20.8656 9.91935 20.1513 9.93013ZM34.4746 7.96163C35.4357 7.94673 36.3848 8.17029 37.2326 8.61124C38.0483 9.04422 38.7139 9.70286 39.1453 10.5039C39.6283 11.432 39.8653 12.463 39.8348 13.503V18.8297C39.8388 18.9754 39.8123 19.1204 39.7568 19.2558C39.7014 19.3911 39.6182 19.5142 39.5123 19.6171C39.4064 19.7203 39.2802 19.8013 39.1412 19.8552C39.0021 19.9093 38.8531 19.935 38.7035 19.9311C38.5539 19.935 38.405 19.9093 38.2659 19.8552C38.1269 19.8013 38.0005 19.7203 37.8947 19.6171C37.7888 19.5142 37.7056 19.3911 37.6502 19.2558C37.5947 19.1204 37.5682 18.9754 37.5722 18.8297V13.503C37.6084 13.0197 37.5412 12.5344 37.3746 12.0778C37.2081 11.6211 36.9459 11.2032 36.6047 10.8504C36.2574 10.543 35.8512 10.3054 35.4093 10.1512C34.9674 9.99702 34.4986 9.92925 34.0298 9.95178C33.441 9.94435 32.8585 10.0704 32.3284 10.3199C31.8447 10.5425 31.4306 10.8863 31.1283 11.316C30.839 11.7323 30.6874 12.2248 30.6936 12.7274V18.8297C30.698 18.9745 30.6726 19.1187 30.6191 19.2538C30.5657 19.3891 30.4852 19.5125 30.3822 19.6171C30.2751 19.7224 30.1466 19.8047 30.0049 19.8589C29.8631 19.9129 29.7114 19.9375 29.5593 19.9311C29.4097 19.935 29.2608 19.9093 29.1217 19.8552C28.9827 19.8013 28.8563 19.7203 28.7506 19.6171C28.6446 19.5142 28.5614 19.3911 28.506 19.2558C28.4505 19.1204 28.424 18.9754 28.4281 18.8297V9.17226C28.4215 9.02421 28.4468 8.87645 28.5023 8.73848C28.5579 8.60051 28.6424 8.47536 28.7506 8.37108C28.858 8.27087 28.9848 8.19247 29.1237 8.14043C29.2625 8.08838 29.4106 8.06374 29.5593 8.06793C29.7105 8.0613 29.8614 8.08477 30.0029 8.1369C30.1444 8.18902 30.2735 8.26871 30.3822 8.37108C30.4874 8.47698 30.5693 8.60265 30.6228 8.74041C30.6763 8.87817 30.7004 9.02512 30.6936 9.17226V9.41045C31.1755 8.94385 31.7508 8.57897 32.384 8.3386C33.0496 8.08355 33.7593 7.95493 34.4746 7.95966V7.96163ZM47.8861 7.98328C48.9743 7.96876 50.0464 8.24081 50.9888 8.77068C51.9071 9.2894 52.6671 10.0368 53.1907 10.936C53.7352 11.8692 54.0144 12.9269 53.9994 14V18.8297C54.0035 18.9754 53.977 19.1204 53.9215 19.2558C53.8661 19.3911 53.7829 19.5142 53.6769 19.6171C53.5711 19.7203 53.4448 19.8013 53.3058 19.8552C53.1667 19.9093 53.0178 19.935 52.8682 19.9311C52.7178 19.9356 52.5681 19.91 52.4284 19.8561C52.2886 19.8021 52.1616 19.7208 52.0553 19.6171C51.9494 19.5142 51.8662 19.3911 51.8108 19.2558C51.7553 19.1204 51.7288 18.9754 51.7328 18.8297V18.0285C51.2219 18.6432 50.5764 19.1389 49.8433 19.4793C49.0935 19.8277 48.2721 20.0053 47.4413 19.999C46.4181 20.012 45.4119 19.7432 44.5388 19.2234C43.6679 18.7001 42.9604 17.9551 42.4926 17.0689C41.9866 16.1222 41.7292 15.0681 41.7435 14.001C41.7318 12.9283 42.0107 11.8714 42.5523 10.937C43.0736 10.0325 43.8388 9.28378 44.7653 8.77167C45.715 8.24305 46.7922 7.97024 47.8861 7.98131V7.98328ZM47.8861 18.0522C48.5947 18.0609 49.2917 17.8772 49.899 17.5217C50.4971 17.172 50.9863 16.6705 51.3143 16.0709C51.661 15.4348 51.8369 14.7239 51.8259 14.0039C51.8362 13.2803 51.6603 12.5658 51.3143 11.9252C50.9889 11.3211 50.4993 10.8155 49.899 10.4636C49.2917 10.1081 48.5947 9.92436 47.8861 9.93308C47.1775 9.92436 46.4806 10.1081 45.8733 10.4636C45.2726 10.8175 44.7808 11.3224 44.4498 11.9252C44.0969 12.5636 43.917 13.279 43.9272 14.0039C43.9163 14.7252 44.0962 15.437 44.4498 16.0709C44.7833 16.6691 45.2747 17.17 45.8733 17.5217C46.4808 17.8765 47.1777 18.0596 47.8861 18.0502V18.0522Z" fill="#F7F8F9"/>
<path d="M5.30107 23.0003C6.29512 22.9886 7.25997 23.3362 8.01808 23.9793C8.05118 24.0053 8.07755 24.0388 8.09496 24.0771C8.11236 24.1154 8.12029 24.1573 8.11808 24.1993C8.11839 24.2861 8.08711 24.3699 8.03007 24.4353C7.99992 24.4692 7.96248 24.4958 7.92056 24.5131C7.87865 24.5304 7.83335 24.538 7.78808 24.5353C7.68381 24.5247 7.58653 24.4781 7.51307 24.4033C6.89698 23.8837 6.10709 23.6165 5.30208 23.6553C4.66245 23.654 4.03544 23.8332 3.49308 24.1723C2.93736 24.5112 2.47721 24.9861 2.15608 25.5523C1.8288 26.111 1.65622 26.7468 1.65608 27.3943C1.65161 28.0518 1.82062 28.6989 2.14608 29.2703C2.46384 29.8381 2.9257 30.312 3.48507 30.6443C4.03327 30.978 4.66329 31.1532 5.30508 31.1503C6.13515 31.1634 6.94263 30.8797 7.58208 30.3503C7.62981 30.3149 7.68762 30.2956 7.74708 30.2953C7.83589 30.296 7.92078 30.332 7.98308 30.3953C8.01582 30.4264 8.04164 30.4639 8.05887 30.5056C8.0761 30.5473 8.08435 30.5922 8.08308 30.6373C8.087 30.7212 8.05955 30.8035 8.00607 30.8683C7.64163 31.199 7.21426 31.4529 6.7495 31.6147C6.28473 31.7766 5.79212 31.8431 5.30107 31.8103C4.54417 31.8138 3.80131 31.606 3.15608 31.2103C2.5019 30.8156 1.96075 30.2586 1.58508 29.5933C1.19904 28.9271 0.997144 28.1703 1.00008 27.4003C0.995517 26.6325 1.19461 25.8771 1.57708 25.2113C1.95046 24.5489 2.48847 23.994 3.13908 23.6003C3.78944 23.202 4.53848 22.9942 5.30107 23.0003ZM24.0341 31.2273C24.0562 31.2717 24.0675 31.3207 24.0671 31.3703C24.0671 31.4136 24.0582 31.4564 24.041 31.4962C24.0238 31.5359 23.9987 31.5717 23.9671 31.6013C23.9375 31.6329 23.9017 31.658 23.8619 31.6752C23.8222 31.6924 23.7794 31.7013 23.7361 31.7013C23.6691 31.7043 23.6029 31.6856 23.5474 31.648C23.4919 31.6103 23.45 31.5557 23.4281 31.4923L22.6151 29.5443H18.1381L17.3241 31.4913C17.3038 31.5557 17.2623 31.6114 17.2064 31.6493C17.1505 31.6873 17.0835 31.7052 17.0161 31.7003C16.9709 31.7025 16.9257 31.6947 16.8839 31.6774C16.8421 31.6601 16.8046 31.6338 16.7741 31.6003C16.7164 31.5376 16.6846 31.4555 16.6851 31.3703C16.6847 31.3207 16.696 31.2717 16.7181 31.2273L20.0521 23.3403C20.0719 23.2717 20.114 23.2118 20.1718 23.1699C20.2296 23.1281 20.2998 23.1067 20.3711 23.1093C20.4411 23.1098 20.5092 23.1324 20.5656 23.1739C20.622 23.2154 20.6638 23.2736 20.6851 23.3403L24.0341 31.2273ZM22.3621 28.9503L20.3711 24.2003L18.3911 28.9503H22.3621ZM36.6401 27.0693C36.6839 27.068 36.7276 27.0756 36.7683 27.0918C36.8091 27.1079 36.8461 27.1323 36.8771 27.1633C36.9078 27.1943 36.9319 27.2312 36.9479 27.2717C36.9639 27.3123 36.9714 27.3557 36.9701 27.3993C36.9724 27.4891 36.9389 27.5761 36.8771 27.6413C36.847 27.6739 36.8103 27.6997 36.7694 27.717C36.7285 27.7342 36.6844 27.7425 36.6401 27.7413H32.9991V31.3703C33.0004 31.4141 32.9928 31.4578 32.9766 31.4985C32.9605 31.5393 32.9361 31.5763 32.9051 31.6073C32.8741 31.638 32.8372 31.6621 32.7967 31.6781C32.7561 31.6941 32.7127 31.7017 32.6691 31.7003C32.6254 31.7015 32.582 31.6938 32.5414 31.6776C32.5008 31.6615 32.464 31.6372 32.4331 31.6063C32.4022 31.5754 32.3779 31.5386 32.3618 31.498C32.3456 31.4574 32.3379 31.414 32.3391 31.3703V23.4393C32.3373 23.3952 32.3447 23.3512 32.3607 23.3101C32.3767 23.269 32.401 23.2316 32.4321 23.2003C32.463 23.1694 32.4998 23.1451 32.5404 23.129C32.581 23.1128 32.6244 23.1051 32.6681 23.1063H37.9591C38.0455 23.1058 38.1286 23.1396 38.1901 23.2003C38.2226 23.2303 38.2483 23.2668 38.2655 23.3075C38.2828 23.3482 38.2912 23.3921 38.2901 23.4363C38.2901 23.4796 38.2812 23.5224 38.264 23.5622C38.2468 23.6019 38.2217 23.6377 38.1901 23.6673C38.1605 23.6989 38.1247 23.724 38.0849 23.7412C38.0452 23.7584 38.0024 23.7673 37.9591 23.7673H32.9991V27.0673L36.6401 27.0693ZM53.2061 31.0403C53.2494 31.0403 53.2922 31.0492 53.3319 31.0664C53.3717 31.0836 53.4075 31.1087 53.4371 31.1403C53.4687 31.1699 53.4938 31.2057 53.511 31.2455C53.5282 31.2852 53.5371 31.328 53.5371 31.3713C53.5383 31.4157 53.53 31.4598 53.5127 31.5006C53.4955 31.5415 53.4697 31.5782 53.4371 31.6083C53.3753 31.6683 53.2922 31.7014 53.2061 31.7003H47.9151C47.8714 31.7015 47.828 31.6938 47.7874 31.6776C47.7468 31.6615 47.71 31.6372 47.6791 31.6063C47.6482 31.5754 47.6239 31.5386 47.6078 31.498C47.5916 31.4574 47.5839 31.414 47.5851 31.3703V23.4393C47.5839 23.3956 47.5916 23.3522 47.6078 23.3116C47.6239 23.271 47.6482 23.2342 47.6791 23.2033C47.71 23.1724 47.7468 23.1481 47.7874 23.132C47.828 23.1158 47.8714 23.1081 47.9151 23.1093H53.2061C53.2925 23.1088 53.3756 23.1426 53.4371 23.2033C53.4696 23.2333 53.4953 23.2698 53.5125 23.3105C53.5298 23.3512 53.5382 23.3951 53.5371 23.4393C53.5371 23.4826 53.5282 23.5254 53.511 23.5652C53.4938 23.6049 53.4687 23.6407 53.4371 23.6703C53.4075 23.7019 53.3717 23.727 53.3319 23.7442C53.2922 23.7614 53.2494 23.7703 53.2061 23.7703H48.2451V27.0703H51.8851C51.9288 27.0691 51.9722 27.0768 52.0128 27.093C52.0534 27.1091 52.0902 27.1334 52.1211 27.1643C52.152 27.1952 52.1763 27.232 52.1924 27.2726C52.2086 27.3132 52.2163 27.3566 52.2151 27.4003C52.2161 27.4448 52.2083 27.4891 52.1922 27.5307C52.1761 27.5722 52.1519 27.6101 52.1211 27.6423C52.0911 27.6748 52.0546 27.7005 52.0139 27.7178C51.9732 27.735 51.9293 27.7434 51.8851 27.7423H48.2451V31.0423L53.2061 31.0403Z" fill="#F7F8F9" stroke="#F7F8F9" stroke-width="0.5"/>
</g>
<defs>
<clipPath id="clip0">
<rect width="79" height="34" fill="white"/>
</clipPath>
</defs>
</svg>
