<svg width="187" height="47" viewBox="0 0 187 47" fill="none" xmlns="http://www.w3.org/2000/svg">
<g clip-path="url(#clip0)">
<path d="M87.5298 40.7558C87.5298 39.9951 86.9048 39.3784 86.1338 39.3784H81.3959C80.625 39.3784 80 39.9951 80 40.7558C80 41.5165 80.625 42.1332 81.3959 42.1332H84.775V45.6226C84.775 46.3833 85.3917 47 86.1524 47C86.9131 47 87.5298 46.3833 87.5298 45.6226C87.5298 45.6225 87.5298 40.788 87.5298 40.7558Z" fill="#FDBF00"/>
<path d="M82.7549 45.6225C82.4024 45.6225 82.05 45.488 81.781 45.219C81.2431 44.6811 81.2431 43.809 81.781 43.2711L91.0555 33.9966C91.5933 33.4587 92.4655 33.4587 93.0034 33.9966C93.5413 34.5345 93.5413 35.4066 93.0034 35.9445L83.7289 45.219C83.46 45.4879 83.1073 45.6225 82.7549 45.6225Z" fill="#453D81"/>
<path d="M100.252 40.572C97.3084 40.572 92.4122 36.7576 88.8658 32.9774C86.5867 30.5481 81.2858 24.2602 81.2858 18.3553C81.2858 12.4895 86.058 7.71729 91.9238 7.71729C93.9559 7.71729 95.9318 8.29267 97.638 9.38109C98.639 10.0197 99.5209 10.8164 100.252 11.736C100.984 10.8164 101.866 10.0197 102.867 9.38109C104.573 8.29258 106.549 7.71729 108.581 7.71729C114.447 7.71729 119.219 12.4895 119.219 18.3553C119.219 24.5596 114.461 30.4116 111.625 33.3477C108.264 36.8271 103.272 40.572 100.252 40.572Z" fill="#FF415B"/>
<path d="M108.581 7.71753C106.548 7.71753 104.573 8.29291 102.866 9.38133C101.865 10.02 100.983 10.8167 100.252 11.7362V40.5721C103.271 40.5721 108.264 36.8273 111.625 33.3479C114.461 30.4118 119.219 24.5598 119.219 18.3554C119.219 12.4897 114.446 7.71753 108.581 7.71753Z" fill="#E50058"/>
<path d="M111.359 17.0186C111.006 17.0186 110.654 16.8842 110.385 16.6151C109.847 16.0772 109.847 15.2051 110.385 14.6672L119.43 5.62231C119.968 5.08439 120.84 5.08439 121.378 5.62231C121.916 6.16023 121.916 7.03231 121.378 7.57023L112.333 16.6151C112.064 16.8841 111.711 17.0186 111.359 17.0186Z" fill="#38336B"/>
<path d="M112.597 21.0751C112.583 21.0751 112.569 21.0749 112.555 21.0744C111.795 21.0518 111.197 20.4171 111.219 19.6567C111.22 19.6191 111.221 19.5814 111.221 19.5438C111.221 17.4171 109.491 15.687 107.364 15.687C106.603 15.687 105.987 15.0703 105.987 14.3096C105.987 13.549 106.603 12.9323 107.364 12.9323C111.01 12.9323 113.976 15.8982 113.976 19.5438C113.976 19.6087 113.975 19.6736 113.973 19.7386C113.951 20.485 113.338 21.0751 112.597 21.0751V21.0751Z" fill="#B40042"/>
<path d="M123.03 9.90197C122.669 9.90197 122.317 9.75964 122.056 9.49849L117.501 4.94371C117.169 4.61075 117.029 4.13068 117.131 3.6709C117.233 3.21122 117.563 2.83556 118.006 2.67495L125.153 0.0825096C125.656 -0.0996741 126.219 0.0253017 126.597 0.403443C126.975 0.781584 127.1 1.34439 126.918 1.84705L124.325 8.99427C124.164 9.43696 123.789 9.76699 123.329 9.86919C123.23 9.89123 123.13 9.90197 123.03 9.90197V9.90197Z" fill="#FF8856"/>
</g>
<path d="M5.86742 40.045C4.56076 40.045 3.58076 39.8234 2.92742 39.3801C2.29742 38.9367 1.98242 38.2251 1.98242 37.2451C1.98242 37.1751 2.04076 37.14 2.15742 37.14C2.25076 37.14 2.53076 37.1984 2.99742 37.3151C3.46409 37.4317 4.28076 37.49 5.44742 37.49C8.03742 37.49 10.3941 37.1051 12.5174 36.3351C14.6641 35.5417 16.3441 34.5034 17.5574 33.22C18.7708 31.9367 19.3774 30.595 19.3774 29.195C19.3774 27.4917 18.5374 26.3367 16.8574 25.73C15.1774 25.1 13.0774 24.785 10.5574 24.785L7.93242 24.82C7.58242 26.01 7.08076 27.795 6.42742 30.175C5.93742 31.995 5.38909 33.9667 4.78242 36.09C4.19909 36.09 3.70909 35.9267 3.31242 35.6C2.91576 35.2734 2.71742 34.8767 2.71742 34.41C2.71742 34.1067 2.78742 33.7334 2.92742 33.2901C3.06742 32.8467 3.16076 32.555 3.20742 32.415C3.93076 29.9884 5.01576 26.7567 6.46242 22.72C7.93242 18.66 9.32076 15.3467 10.6274 12.78C9.25076 13.0134 7.89742 13.5267 6.56742 14.32C6.14742 14.5534 5.89076 14.67 5.79742 14.67C5.61076 14.67 5.37742 14.5534 5.09742 14.32C4.81742 14.0867 4.67742 13.8884 4.67742 13.725C6.21742 13.095 7.57076 12.6167 8.73742 12.29C9.92742 11.9634 11.3391 11.8 12.9724 11.8C15.1191 11.8 16.9974 12.1967 18.6074 12.99C20.2408 13.76 21.0574 15.2184 21.0574 17.365C21.0574 19.4417 20.2758 21.005 18.7124 22.055C17.1724 23.105 15.2824 23.8167 13.0424 24.19C18.3624 24.5167 21.0224 26.395 21.0224 29.825C21.0224 31.925 20.1708 33.7567 18.4674 35.32C16.7641 36.86 14.7108 38.0267 12.3074 38.82C9.92742 39.6367 7.78076 40.045 5.86742 40.045ZM8.14242 24.015C11.1524 23.9217 13.7074 23.3267 15.8074 22.23C17.9074 21.1334 18.9574 19.4184 18.9574 17.085C18.9574 14.0517 16.9858 12.535 13.0424 12.535C12.7391 12.535 12.5174 12.5467 12.3774 12.57C11.0008 15.2534 9.58909 19.0684 8.14242 24.015Z" fill="white"/>
<path d="M25.0264 38.1201C24.0697 38.1201 23.3697 37.8284 22.9264 37.2451C22.483 36.6617 22.2614 35.8917 22.2614 34.935C22.2614 33.9784 22.4597 32.975 22.8564 31.925C23.253 30.875 23.7664 30 24.3964 29.3C25.0264 28.6 25.6564 28.25 26.2864 28.25C26.4964 28.25 26.7414 28.3084 27.0214 28.425C26.7414 28.6584 26.403 29.1717 26.0064 29.965C25.6097 30.7584 25.2597 31.61 24.9564 32.5201C24.6764 33.4067 24.5364 34.1301 24.5364 34.6901C24.5364 36.0201 24.9564 36.685 25.7964 36.685C26.2864 36.685 26.8697 36.4284 27.5464 35.9151C28.223 35.4017 28.888 34.725 29.5414 33.885C28.888 33.3484 28.3747 32.6484 28.0014 31.785C27.6514 30.9217 27.4764 30.0234 27.4764 29.09C27.4764 27.8767 27.7797 26.8384 28.3864 25.975C29.0164 25.1117 29.8564 24.68 30.9064 24.68C31.793 24.68 32.4114 24.925 32.7614 25.415C33.1347 25.8817 33.3214 26.535 33.3214 27.375C33.3214 28.2617 33.0997 29.265 32.6564 30.385C32.2364 31.4817 31.6764 32.555 30.9764 33.605C31.3964 33.8384 31.8397 33.955 32.3064 33.955C32.983 33.955 33.683 33.7567 34.4064 33.3601C35.1297 32.9401 35.678 32.2984 36.0514 31.435L36.4714 31.785C36.028 32.8117 35.398 33.57 34.5814 34.06C33.7647 34.55 32.9247 34.795 32.0614 34.795C31.4314 34.795 30.8714 34.6784 30.3814 34.445C29.5414 35.5417 28.643 36.4284 27.6864 37.105C26.753 37.7817 25.8664 38.1201 25.0264 38.1201ZM30.1714 32.975C30.778 32.065 31.268 31.1434 31.6414 30.21C32.0147 29.2534 32.2014 28.3784 32.2014 27.585C32.2014 26.9317 32.0964 26.4417 31.8864 26.115C31.6997 25.7884 31.4547 25.625 31.1514 25.625C30.8247 25.625 30.4864 25.7884 30.1364 26.115C29.8097 26.4184 29.5297 26.85 29.2964 27.41C29.0864 27.9467 28.9814 28.5417 28.9814 29.195C28.9814 29.9184 29.0747 30.6184 29.2614 31.295C29.4714 31.9484 29.7747 32.5084 30.1714 32.975Z" fill="white"/>
<path d="M46.6996 37.7001C45.9062 37.7001 45.2996 37.49 44.8796 37.07C44.4596 36.6734 44.2496 36.1367 44.2496 35.4601C44.2496 35.1567 44.2962 34.8067 44.3896 34.41C44.5062 33.99 44.6229 33.5817 44.7396 33.185C44.8796 32.765 44.9962 32.3217 45.0896 31.855C45.2062 31.3884 45.2646 30.9684 45.2646 30.595C45.2646 29.4517 44.7979 28.88 43.8646 28.88C42.9779 28.88 42.0446 29.3467 41.0646 30.2801C40.1079 31.2134 39.2446 32.2517 38.4746 33.3951C37.7279 34.5384 36.8762 35.915 35.9196 37.525C35.5229 37.525 35.1612 37.4551 34.8346 37.3151C34.5079 37.1984 34.2512 37.0117 34.0646 36.7551C34.0646 36.6384 34.2162 36.2184 34.5196 35.4951C35.1029 34.0017 35.5812 32.6484 35.9546 31.435C36.3279 30.1984 36.5262 29.1017 36.5496 28.1451C36.7129 27.9584 36.9462 27.795 37.2496 27.655C37.5529 27.4917 37.8562 27.41 38.1596 27.41C38.7896 27.41 39.1046 27.7134 39.1046 28.32C39.1046 28.67 38.9996 29.2884 38.7896 30.175C38.5796 31.0384 38.3112 31.9601 37.9846 32.9401C39.1046 31.2134 40.2946 29.7551 41.5546 28.5651C42.8146 27.375 44.0512 26.78 45.2646 26.78C46.1279 26.78 46.7696 27.095 47.1896 27.725C47.6329 28.3317 47.8546 29.0667 47.8546 29.93C47.8546 30.4434 47.7846 30.9334 47.6446 31.4C47.5279 31.8667 47.3412 32.4034 47.0846 33.01C46.8746 33.5234 46.7112 33.9667 46.5946 34.34C46.4779 34.7134 46.4196 35.0867 46.4196 35.4601C46.4196 36.3467 46.7696 36.7901 47.4696 36.7901C48.2629 36.7901 49.0796 36.265 49.9196 35.215C50.7829 34.165 51.5996 32.87 52.3696 31.33L52.7546 31.785C51.0746 35.7284 49.0562 37.7001 46.6996 37.7001Z" fill="white"/>
<path d="M53.3783 38.6451C52.6083 38.6451 51.9899 38.3884 51.5233 37.875C51.0333 37.385 50.7883 36.6734 50.7883 35.74C50.7883 34.3634 51.2783 32.8234 52.2583 31.12C53.2616 29.4167 54.5216 27.97 56.0383 26.78C57.5549 25.59 59.0366 24.995 60.4833 24.995C61.3933 24.995 62.1516 25.24 62.7583 25.73C63.3649 26.22 63.6683 26.85 63.6683 27.62C63.6683 28.1567 63.5166 28.5417 63.2133 28.775C62.9099 29.0084 62.4899 29.125 61.9533 29.125C62.0699 28.705 62.1283 28.2967 62.1283 27.9C62.1283 27.3167 61.9883 26.85 61.7083 26.5C61.4283 26.1267 60.9966 25.94 60.4133 25.94C59.3866 25.94 58.3016 26.5117 57.1583 27.655C56.0383 28.7984 55.0933 30.1634 54.3233 31.75C53.5766 33.3367 53.2033 34.7017 53.2033 35.845C53.2033 36.755 53.5183 37.2101 54.1483 37.2101C55.0816 37.2101 56.1783 36.475 57.4383 35.005C58.6983 33.5117 60.0516 31.7034 61.4983 29.58C61.8016 29.6267 62.1049 29.7317 62.4083 29.8951C62.7349 30.035 62.8983 30.2217 62.8983 30.455C62.8983 30.6417 62.7816 30.945 62.5483 31.365C62.3383 31.7617 62.2099 31.995 62.1633 32.0651C61.7666 32.7417 61.4516 33.3484 61.2183 33.885C60.9849 34.3984 60.8683 34.8767 60.8683 35.32C60.8683 35.7167 60.9616 36.0784 61.1483 36.4051C61.3583 36.7084 61.6616 36.8601 62.0583 36.8601C62.7349 36.8601 63.5866 36.3817 64.6133 35.425C65.6399 34.445 66.6549 33.08 67.6583 31.33L68.0083 31.68C67.5183 32.9167 66.8883 34.025 66.1183 35.005C65.3483 35.9617 64.5199 36.7084 63.6333 37.2451C62.7466 37.7817 61.8949 38.0501 61.0783 38.0501C60.2616 38.0501 59.6316 37.8051 59.1883 37.3151C58.7683 36.8484 58.5583 36.2767 58.5583 35.6C58.5583 35.2967 58.5933 34.9584 58.6633 34.585C57.6133 35.985 56.6683 37.0117 55.8283 37.6651C55.0116 38.3184 54.1949 38.6451 53.3783 38.6451Z" fill="white"/>
<path d="M138.25 40.045C136.687 40.045 135.38 39.6484 134.33 38.855C133.303 38.0617 132.545 37.0234 132.055 35.74C131.588 34.4334 131.355 33.0217 131.355 31.505C131.355 28.5184 132.09 25.4967 133.56 22.44C135.03 19.36 136.885 16.8284 139.125 14.845C141.365 12.8384 143.57 11.835 145.74 11.835C146.743 11.835 147.525 12.08 148.085 12.57C148.668 13.06 148.96 13.8184 148.96 14.845C148.96 15.755 148.75 16.805 148.33 17.995C147.91 19.185 147.385 20.2 146.755 21.04C146.125 21.88 145.507 22.3 144.9 22.3C144.433 22.3 144.072 22.0317 143.815 21.495C144.678 20.515 145.518 19.325 146.335 17.925C147.152 16.525 147.56 15.37 147.56 14.46C147.56 13.97 147.42 13.585 147.14 13.305C146.86 13.025 146.428 12.885 145.845 12.885C144.235 12.885 142.508 13.935 140.665 16.035C138.822 18.1117 137.27 20.6667 136.01 23.7C134.773 26.7334 134.155 29.5334 134.155 32.1C134.155 34.0134 134.563 35.6234 135.38 36.93C136.197 38.2134 137.433 38.855 139.09 38.855C140.28 38.855 141.493 38.505 142.73 37.805C143.967 37.1284 145.098 36.2184 146.125 35.0751C147.152 33.9317 147.98 32.6834 148.61 31.33L149.1 31.68C147.84 34.1534 146.265 36.1601 144.375 37.7001C142.508 39.2634 140.467 40.045 138.25 40.045Z" fill="white"/>
<path d="M149.56 38.6451C148.79 38.6451 148.172 38.3884 147.705 37.875C147.215 37.385 146.97 36.6734 146.97 35.74C146.97 34.3634 147.46 32.8234 148.44 31.12C149.443 29.4167 150.703 27.97 152.22 26.78C153.737 25.59 155.218 24.995 156.665 24.995C157.575 24.995 158.333 25.24 158.94 25.73C159.547 26.22 159.85 26.85 159.85 27.62C159.85 28.1567 159.698 28.5417 159.395 28.775C159.092 29.0084 158.672 29.125 158.135 29.125C158.252 28.705 158.31 28.2967 158.31 27.9C158.31 27.3167 158.17 26.85 157.89 26.5C157.61 26.1267 157.178 25.94 156.595 25.94C155.568 25.94 154.483 26.5117 153.34 27.655C152.22 28.7984 151.275 30.1634 150.505 31.75C149.758 33.3367 149.385 34.7017 149.385 35.845C149.385 36.755 149.7 37.2101 150.33 37.2101C151.263 37.2101 152.36 36.475 153.62 35.005C154.88 33.5117 156.233 31.7034 157.68 29.58C157.983 29.6267 158.287 29.7317 158.59 29.8951C158.917 30.035 159.08 30.2217 159.08 30.455C159.08 30.6417 158.963 30.945 158.73 31.365C158.52 31.7617 158.392 31.995 158.345 32.0651C157.948 32.7417 157.633 33.3484 157.4 33.885C157.167 34.3984 157.05 34.8767 157.05 35.32C157.05 35.7167 157.143 36.0784 157.33 36.4051C157.54 36.7084 157.843 36.8601 158.24 36.8601C158.917 36.8601 159.768 36.3817 160.795 35.425C161.822 34.445 162.837 33.08 163.84 31.33L164.19 31.68C163.7 32.9167 163.07 34.025 162.3 35.005C161.53 35.9617 160.702 36.7084 159.815 37.2451C158.928 37.7817 158.077 38.0501 157.26 38.0501C156.443 38.0501 155.813 37.8051 155.37 37.3151C154.95 36.8484 154.74 36.2767 154.74 35.6C154.74 35.2967 154.775 34.9584 154.845 34.585C153.795 35.985 152.85 37.0117 152.01 37.6651C151.193 38.3184 150.377 38.6451 149.56 38.6451Z" fill="white"/>
<path d="M162.669 46.8C162.179 46.8 161.736 46.5667 161.339 46.1001C160.942 45.6567 160.744 44.8634 160.744 43.7201C160.744 41.2701 161.619 37.4201 163.369 32.17C165.119 26.8967 167.161 22.1834 169.494 18.03C171.851 13.8767 173.927 11.8 175.724 11.8C176.167 11.8 176.471 11.94 176.634 12.22C176.821 12.4767 176.914 12.85 176.914 13.34C176.914 14.6234 176.459 16.0817 175.549 17.715C174.639 19.3484 173.461 20.9467 172.014 22.51C170.567 24.0734 169.086 25.38 167.569 26.43C167.406 26.8034 167.184 27.3867 166.904 28.18C167.137 28.2267 167.324 28.3667 167.464 28.6C167.627 28.8101 167.732 29.0434 167.779 29.3C167.966 30.6067 168.152 31.6217 168.339 32.345C168.526 33.0684 168.806 33.6517 169.179 34.095C169.576 34.5384 170.124 34.76 170.824 34.76C171.594 34.76 172.247 34.4917 172.784 33.955C173.344 33.4184 173.986 32.5434 174.709 31.33L175.234 31.68C174.674 32.9867 173.962 33.9784 173.099 34.6551C172.236 35.3317 171.419 35.67 170.649 35.67C170.229 35.67 169.786 35.565 169.319 35.355C168.876 35.145 168.456 34.865 168.059 34.515C168.059 36.4284 167.791 38.3417 167.254 40.2551C166.717 42.1684 166.029 43.7317 165.189 44.945C164.372 46.1817 163.532 46.8 162.669 46.8ZM168.129 24.995C169.552 23.6884 170.824 22.3234 171.944 20.9C173.087 19.4767 173.974 18.205 174.604 17.085C175.234 15.9417 175.549 15.125 175.549 14.635C175.549 14.3084 175.386 14.145 175.059 14.145C174.196 14.145 173.146 15.16 171.909 17.19C170.672 19.1967 169.412 21.7984 168.129 24.995ZM163.579 45.12C163.999 45.12 164.489 44.5251 165.049 43.3351C165.632 42.1451 166.122 40.7334 166.519 39.1C166.939 37.49 167.149 36.09 167.149 34.9C167.149 34.2 167.056 33.5584 166.869 32.975C166.706 32.3917 166.402 31.6684 165.959 30.805C165.049 33.4884 164.314 35.9734 163.754 38.26C163.194 40.5467 162.914 42.2734 162.914 43.4401C162.914 43.9767 162.972 44.3851 163.089 44.6651C163.206 44.9684 163.369 45.12 163.579 45.12Z" fill="white"/>
<path d="M177.807 38.5401C176.431 38.5401 175.369 38.155 174.622 37.385C173.899 36.6384 173.537 35.67 173.537 34.48C173.537 33.1034 173.992 31.6217 174.902 30.035C175.812 28.4484 176.956 27.1184 178.332 26.045C179.732 24.9484 181.097 24.4 182.427 24.4C183.874 24.4 184.597 25.1117 184.597 26.535C184.597 27.6784 184.166 28.7517 183.302 29.755C182.439 30.735 181.331 31.54 179.977 32.17C178.624 32.8 177.271 33.1851 175.917 33.3251C175.824 33.7217 175.777 34.1417 175.777 34.585C175.777 35.425 175.987 36.125 176.407 36.685C176.827 37.245 177.539 37.525 178.542 37.525C179.966 37.525 181.401 36.93 182.847 35.74C184.294 34.55 185.472 33.08 186.382 31.33L186.802 31.6451C185.869 33.7217 184.574 35.39 182.917 36.65C181.261 37.91 179.557 38.5401 177.807 38.5401ZM176.092 32.66C177.072 32.31 178.099 31.8201 179.172 31.1901C180.246 30.5601 181.156 29.825 181.902 28.985C182.672 28.1217 183.057 27.2234 183.057 26.29C183.057 26.01 182.999 25.8117 182.882 25.695C182.789 25.555 182.602 25.485 182.322 25.485C181.599 25.485 180.806 25.8467 179.942 26.57C179.102 27.2934 178.321 28.215 177.597 29.335C176.897 30.455 176.396 31.5634 176.092 32.66Z" fill="white"/>
<defs>
<clipPath id="clip0">
<rect x="80" width="47" height="47" fill="white"/>
</clipPath>
</defs>
</svg>
